<svg width="18" height="16" viewBox="0 0 18 16" fill="none" xmlns="http://www.w3.org/2000/svg">
<path d="M6.61163 9.27777H5.98351L6.12436 9.88989L6.32889 10.7788L6.41814 11.1667H6.81616H15.2042C15.3066 11.1667 15.3796 11.2084 15.4183 11.2515C15.455 11.2923 15.4588 11.3274 15.4511 11.3572L15.2787 12.0316L15.173 12.4453L15.5651 12.6145C15.9974 12.8011 16.25 13.1715 16.25 13.5556C16.25 14.0892 15.738 14.6207 14.9806 14.611C14.2628 14.6018 13.7659 14.0934 13.7504 13.5833C13.7418 13.2981 13.8685 13.0267 14.1041 12.8215L15.1114 11.9444H13.7758H7.22425H5.88871L6.89589 12.8215C7.1242 13.0203 7.25 13.2812 7.25 13.5556C7.25 14.0992 6.71674 14.642 5.93719 14.6098C5.25287 14.5816 4.78058 14.1001 4.7516 13.6099C4.729 13.2278 4.95271 12.8582 5.35666 12.6517L5.70374 12.4743L5.61633 12.0944L3.42111 2.55454L3.33186 2.16666H2.93384H0.75C0.662692 2.16666 0.594081 2.13524 0.55185 2.0977C0.510535 2.06097 0.5 2.02556 0.5 2V1.55555C0.5 1.52999 0.510535 1.49458 0.55185 1.45785C0.594081 1.42031 0.662692 1.38889 0.75 1.38889H3.95403C4.11647 1.38889 4.19067 1.48685 4.20155 1.53407C4.20155 1.53408 4.20155 1.53408 4.20155 1.53409L4.48799 2.77879L4.57724 3.16666H4.97525H17.2497C17.3521 3.16666 17.4251 3.20837 17.4638 3.2515C17.5004 3.2923 17.5042 3.32744 17.4966 3.35723L16.0193 9.135L16.0193 9.13502C16.0071 9.18292 15.9316 9.27777 15.7724 9.27777H6.61163ZM11.0973 9.0269L11.0974 9.02687L13.192 7.16495C13.4824 6.90681 13.5376 6.52429 13.3943 6.21679C13.2556 5.91909 12.9499 5.72222 12.5947 5.72222H11.75V4.55555C11.75 4.04159 11.3012 3.72222 10.875 3.72222H10.125C9.69875 3.72222 9.25 4.04159 9.25 4.55555V5.72222H8.40534C8.05011 5.72222 7.74441 5.91909 7.60568 6.21681C7.46238 6.52432 7.5176 6.90683 7.80801 7.16495C7.80801 7.16496 7.80802 7.16497 7.80803 7.16497L9.90266 9.02687C10.2386 9.32545 10.7615 9.3254 11.0973 9.0269Z" stroke="#D60665"/>
</svg>
