<svg width="18" height="17" viewBox="0 0 18 17" fill="none" xmlns="http://www.w3.org/2000/svg">
<path d="M10.054 2.48575L10.0538 2.48599L9.3612 3.21097L8.99966 3.58945L8.63811 3.21097L7.94555 2.48599L7.94498 2.48539C6.34169 0.80149 3.77529 0.560524 2.07448 2.03279C0.0860855 3.75696 -0.0212428 6.8631 1.76113 8.73498L8.56343 15.8702C8.56346 15.8703 8.56349 15.8703 8.56353 15.8703C8.80595 16.1244 9.18985 16.1244 9.43228 15.8703C9.43231 15.8703 9.43234 15.8703 9.43237 15.8702L16.2349 8.73476L16.235 8.73466C18.0204 6.86287 17.9132 3.75709 15.925 2.03293L10.054 2.48575ZM10.054 2.48575C11.6611 0.80117 14.2243 0.560686 15.9249 2.03286L10.054 2.48575Z" stroke="#D60665"/>
</svg>
