<svg width="22" height="22" viewBox="0 0 22 22" fill="none" xmlns="http://www.w3.org/2000/svg">
<g clip-path="url(#clip0_8_209)">
<path d="M12.0312 1.02523C12.0312 0.00257877 10.7143 -0.382851 10.1342 0.464922C4.8125 8.24356 12.375 8.59375 12.375 12.375C12.375 13.906 11.1242 15.1448 9.58848 15.1246C8.07727 15.1052 6.875 13.8454 6.875 12.3342V8.65992C6.875 7.7275 5.73762 7.27504 5.0948 7.95094C3.94453 9.15922 2.75 11.229 2.75 13.75C2.75 18.2991 6.4509 22 11 22C15.5491 22 19.25 18.2991 19.25 13.75C19.25 6.43285 12.0312 5.45703 12.0312 1.02523Z" fill="#D60665"/>
</g>
<defs>
<clipPath id="clip0_8_209">
<rect width="22" height="22" fill="white"/>
</clipPath>
</defs>
</svg>
