<svg width="15" height="18" viewBox="0 0 15 18" fill="none" xmlns="http://www.w3.org/2000/svg">
<path d="M9.51882 11.8379L9.81884 12.0254L10.0955 11.8049C10.5594 11.435 11.1461 11.2143 11.7857 11.2143C13.2848 11.2143 14.5 12.4295 14.5 13.9286C14.5 15.4276 13.2848 16.6429 11.7857 16.6429C10.2867 16.6429 9.07143 15.4276 9.07143 13.9286V13.9284C9.07137 13.7301 9.09296 13.5324 9.13582 13.3388L9.21215 12.994L8.91263 12.8068L5.48118 10.6621L5.18116 10.4746L4.90451 10.6951C4.44059 11.065 3.85391 11.2857 3.21429 11.2857C1.71524 11.2857 0.5 10.0705 0.5 8.57143C0.5 7.07238 1.71524 5.85714 3.21429 5.85714C3.85391 5.85714 4.44059 6.0779 4.90451 6.44773L5.18116 6.66826L5.48118 6.48075L8.91263 4.33609L9.21218 4.14887L9.13581 3.80399C9.09379 3.61424 9.07143 3.41704 9.07143 3.21429C9.07143 1.71524 10.2867 0.5 11.7857 0.5C13.2848 0.5 14.5 1.71524 14.5 3.21429C14.5 4.71333 13.2848 5.92857 11.7857 5.92857C11.1461 5.92857 10.5594 5.70781 10.0955 5.33797L9.81885 5.11741L9.51882 5.30493L6.08737 7.44959L5.78793 7.63674L5.86415 7.98152C5.95006 8.37009 5.95006 8.77273 5.86415 9.1613L5.78793 9.50608L6.08737 9.69323L9.51882 11.8379Z" stroke="#D60665"/>
</svg>
